<?xml version="1.0" encoding="UTF-8" standalone="no"?><svg width="55px" height="34px" viewBox="0 0 55 34" version="1.1" xmlns="http://www.w3.org/2000/svg" xmlns:xlink="http://www.w3.org/1999/xlink">        <title>logo-allt copy</title>        <defs/>    <g id="Github" stroke="none" stroke-width="1" fill="none" fill-rule="evenodd">        <g id="github" transform="translate(-99.000000, -14.000000)">            <g id="navbar-desktop">                <g id="brand-white-copy" transform="translate(99.000000, 14.000000)">                    <g id="logo-allt-copy">                        <rect id="Rectangle" fill="#FFFFFF" transform="translate(26.587786, 16.694656) rotate(29.000000) translate(-26.587786, -16.694656) " x="23.9083969" y="4.53435115" width="5.35877863" height="24.3206107"/>                        <path d="M19.6604619,0.203289003 L8.93424976,0.0780951813 L1.16418177,13.3114042 C1.16418177,13.3114042 -0.946366455,16.3292764 1.48407436,20.2440419 C1.98666974,21.0535835 9.06648825,33.0171532 9.06648825,33.0171532 L19.7276882,33.2856557 L10.6696535,17.7815482 C10.6696535,17.7815482 9.93318342,16.656414 10.7769337,15.4735135 C11.6206841,14.2906131 19.6604619,0.203289003 19.6604619,0.203289003 Z" id="Path-2" fill="#FF2C15"/>                        <path d="M53.0497749,0.203289003 L42.3235627,0.0780951813 L34.5534948,13.3114042 C34.5534948,13.3114042 32.4429465,16.3292764 34.8733873,20.2440419 C35.3759827,21.0535835 42.4558012,33.0171532 42.4558012,33.0171532 L53.1170011,33.2856557 L44.0589665,17.7815482 C44.0589665,17.7815482 43.3224964,16.656414 44.1662467,15.4735135 C45.009997,14.2906131 53.0497749,0.203289003 53.0497749,0.203289003 Z" id="Path-2-Copy" fill="#009BEB" transform="translate(43.410265, 16.681875) scale(-1, 1) translate(-43.410265, -16.681875) "/>                        <rect id="Rectangle-5" fill="#009BEB" transform="translate(48.523512, 5.422231) rotate(-34.000000) translate(-48.523512, -5.422231) " x="45.3435115" y="3.70992366" width="6.36000013" height="3.42461546"/>                        <rect id="Rectangle-5-Copy" fill="#009BEB" transform="translate(51.409008, 9.544369) rotate(-34.000000) translate(-51.409008, -9.544369) " x="48.2290076" y="7.83206107" width="6.36000013" height="3.42461546"/>                    </g>                </g>            </g>        </g>    </g></svg>