<?xml version="1.0" encoding="utf-8"?>
<!-- Generator: Adobe Illustrator 18.1.1, SVG Export Plug-In . SVG Version: 6.00 Build 0)  -->
<svg version="1.1" id="Layer_1" xmlns="http://www.w3.org/2000/svg" xmlns:xlink="http://www.w3.org/1999/xlink" x="0px" y="0px"
	 viewBox="-30 58 139 35" enable-background="new -30 58 139 35" xml:space="preserve">
<title>brand</title>
<g id="Symbols">
	<g id="footer-mobile" transform="translate(-1.000000, 0.000000)">
		<g id="footer">
			<g id="unifacile-box" transform="translate(1.000000, 0.000000)">
				<g id="brand">
					<g id="unifacile-logo-flat-new">
						<g id="Group-3">
							<g id="Clip-2">
							</g>
							<g id="Fill-1-Clipped">
								<path id="Fill-1" fill="#FF0000" d="M-7.7,92.2c-1,0.2-2.2,0.4-3.3,0.4c-7.7,0-12.8-5.1-12.8-12.5v-13c0-4.5-3.2-5.1-5-5.1
									c-0.7,0-1.2,0.1-1.2,0.1v-4c0,0,0.7-0.1,1.7-0.1c3,0,9.2,1,9.2,9.1v12.9c0,3.8,1.7,6.4,4.6,7.5c0,0,1.2,1.3,2.7,2.4
									C-10.3,90.8-7.7,92.2-7.7,92.2"/>
							</g>
						</g>
						<path id="Fill-4" fill="#008EF2" d="M-12.8,87.5c0.5,0.1,1.1,0.1,1.7,0.1c4.9,0,8.2-3,8.2-8.1V66.9C-3,59,3.3,58,6.4,58
							c1.1,0,1.8,0.1,1.8,0.1v3.9c0,0-0.5-0.1-1.2-0.1c-1.8,0-5.1,0.6-5.1,5l0,0.5v0.8c0.1,0,0.1,0,0.2-0.1c0,0,0,0,0,0
							c0,0,0.1,0,0.2-0.1c1.5-0.5,3-0.7,4.2-0.7c1.1,0,1.8,0.1,1.8,0.1v3.9c0,0-0.5-0.1-1.2-0.1c-1.8,0-5.1,0.6-5.1,5l0,0v3.3
							c0,5.6-3,9.8-7.8,11.5c0,0-2.5-1-3.7-1.6C-10.9,89-12.8,87.5-12.8,87.5"/>
					</g>
					<text transform="matrix(1 0 0 1 19.2121 82.8537)" fill="#FFFFFF" font-family="'ProximaNova-Regular'" font-size="23.8">Unifacile</text>
				</g>
			</g>
		</g>
	</g>
</g>
</svg>
