<?xml version="1.0" encoding="UTF-8" standalone="no"?><svg xmlns="http://www.w3.org/2000/svg" xmlns:xlink="http://www.w3.org/1999/xlink"><symbol viewBox="0 0 55 34" id="uf-developer-logo"><title>logo-allt copy</title><g fill="none" fill-rule="evenodd"><path fill="#FFF" d="M30.14 4.76l4.687 2.598-11.791 21.271-4.687-2.598z"/><path d="M19.66.203L8.934.078l-7.77 13.233s-2.11 3.018.32 6.933c.503.81 7.582 12.773 7.582 12.773l10.662.269-9.058-15.504s-.737-1.126.107-2.308C11.62 14.29 19.66.204 19.66.204z" fill="#FF2C15"/><path d="M33.77.203L44.498.078l7.77 13.233s2.11 3.018-.32 6.933c-.502.81-7.582 12.773-7.582 12.773l-10.661.269 9.058-15.504s.736-1.126-.108-2.308C41.811 14.29 33.771.204 33.771.204z" fill="#009BEB"/><path fill="#009BEB" d="M44.93 5.78l5.273-3.556 1.915 2.84-5.273 3.556zM47.815 9.903l5.273-3.556 1.915 2.839-5.273 3.556z"/></g></symbol><symbol viewBox="-30 58 139 35" id="uf-logo-text"><title>brand</title><g><path fill="#F00" d="M-7.7 92.2c-1 .2-2.2.4-3.3.4-7.7 0-12.8-5.1-12.8-12.5v-13c0-4.5-3.2-5.1-5-5.1-.7 0-1.2.1-1.2.1v-4s.7-.1 1.7-.1c3 0 9.2 1 9.2 9.1V80c0 3.8 1.7 6.4 4.6 7.5 0 0 1.2 1.3 2.7 2.4 1.5.9 4.1 2.3 4.1 2.3"/><path fill="#008EF2" d="M-12.8 87.5c.5.1 1.1.1 1.7.1 4.9 0 8.2-3 8.2-8.1V66.9C-3 59 3.3 58 6.4 58c1.1 0 1.8.1 1.8.1V62s-.5-.1-1.2-.1c-1.8 0-5.1.6-5.1 5v1.3c.1 0 .1 0 .2-.1 0 0 .1 0 .2-.1 1.5-.5 3-.7 4.2-.7 1.1 0 1.8.1 1.8.1v3.9s-.5-.1-1.2-.1c-1.8 0-5.1.6-5.1 5v3.3c0 5.6-3 9.8-7.8 11.5 0 0-2.5-1-3.7-1.6-1.4-.4-3.3-1.9-3.3-1.9"/><text transform="translate(19.212 82.854)" fill="#FFF" font-family="'ProximaNova-Regular'" font-size="23.8">Unifacile</text></g></symbol></svg>